<?xml version="1.0" encoding="UTF-8"?>
<svg id="Layer_1" data-name="Layer 1" xmlns="http://www.w3.org/2000/svg" viewBox="0 0 147 245.89">
  <defs>
    <style>
      .cls-1 {
        fill: #231f20;
        stroke-width: 0px;
      }
    </style>
  </defs>
  <path class="cls-1" d="M147,.04H63.31c-.51-.01-1.02-.04-1.53-.04C28.38,0,1.21,27.17,1.21,60.56s27.17,60.56,60.56,60.56,60.56-27.17,60.56-60.56c0-15.61-5.94-29.85-15.67-40.6h40.33V.04ZM61.77,101.12c-22.37,0-40.56-18.2-40.56-40.56S39.41,20,61.77,20s40.56,18.2,40.56,40.56-18.2,40.56-40.56,40.56Z"/>
  <path class="cls-1" d="M60.56,124.77c-.41,0-.81.02-1.21.03v20c.4-.01.81-.03,1.21-.03,22.37,0,40.56,18.2,40.56,40.56s-18.2,40.56-40.56,40.56-40.56-18.2-40.56-40.56H0c0,33.39,27.17,60.56,60.56,60.56s60.56-27.17,60.56-60.56-27.17-60.56-60.56-60.56Z"/>
</svg>